<svg xmlns="http://www.w3.org/2000/svg" viewBox="0 0 24 18">
    <path fill="#CCC" fill-rule="evenodd" d="M10.035 8.002L8.598 2.62l10.587 5.382h-9.15zm.007 1.996L8.6 15.38l10.585-5.382h-9.143zm-7.984-5.99h1.37c.57 0 1.03.448 1.03 1 0 .55-.46.997-1.03.997H2.06c-.568 0-1.03-.446-1.03-.998 0-.55.462-.998 1.03-.998zm0 7.987h1.37c.57 0 1.03.447 1.03.998 0 .552-.46.998-1.03.998H2.06c-.568 0-1.03-.445-1.03-.997 0-.55.462-.998 1.03-.998zm-1.03-3.993h3.43c.57 0 1.028.447 1.028.998 0 .552-.46.998-1.028.998h-3.43C.462 9.998 0 9.552 0 9c0-.55.46-.998 1.03-.998zM7.54 18c-.303 0-.6-.1-.85-.29-.423-.33-.608-.868-.472-1.375l1.962-7.32-1.963-7.35c-.135-.507.05-1.046.474-1.372.427-.33.995-.387 1.482-.142l15.09 7.672c.456.23.738.68.738 1.178 0 .5-.285.953-.743 1.183L8.18 17.847c-.206.102-.424.153-.64.153z"/>
</svg>
